<svg width="1098" height="58" viewBox="0 0 1098 58" fill="none" xmlns="http://www.w3.org/2000/svg">
<g clip-path="url(#clip0_1_473)">
<path fill-rule="evenodd" clip-rule="evenodd" d="M621 12C616.926 12 616.415 12.0173 614.815 12.0903C613.219 12.1631 612.129 12.4167 611.174 12.7875C610.188 13.1708 609.352 13.6837 608.518 14.5176C607.684 15.3515 607.171 16.188 606.788 17.1744C606.417 18.1285 606.163 19.2189 606.09 20.8155C606.017 22.4154 606 22.9262 606 27C606 31.0737 606.017 31.5846 606.09 33.1845C606.163 34.7811 606.417 35.8715 606.788 36.8256C607.171 37.8119 607.684 38.6485 608.518 39.4824C609.352 40.3163 610.188 40.8292 611.174 41.2126C612.129 41.5833 613.219 41.8369 614.815 41.9097C616.415 41.9827 616.926 42 621 42C625.074 42 625.585 41.9827 627.184 41.9097C628.781 41.8369 629.872 41.5833 630.826 41.2126C631.812 40.8292 632.649 40.3163 633.482 39.4824C634.316 38.6485 634.829 37.8119 635.213 36.8256C635.583 35.8715 635.837 34.7811 635.91 33.1845C635.983 31.5846 636 31.0737 636 27C636 22.9262 635.983 22.4154 635.91 20.8155C635.837 19.2189 635.583 18.1285 635.213 17.1744C634.829 16.188 634.316 15.3515 633.482 14.5176C632.649 13.6837 631.812 13.1708 630.826 12.7875C629.872 12.4167 628.781 12.1631 627.184 12.0903C625.585 12.0173 625.074 12 621 12ZM621 14.7027C625.005 14.7027 625.48 14.718 627.061 14.7902C628.524 14.8568 629.318 15.1012 629.847 15.3066C630.547 15.5787 631.046 15.9038 631.571 16.4287C632.096 16.9536 632.421 17.4533 632.693 18.1534C632.899 18.682 633.143 19.4762 633.21 20.9387C633.282 22.5204 633.297 22.9948 633.297 27C633.297 31.0052 633.282 31.4796 633.21 33.0613C633.143 34.5238 632.899 35.318 632.693 35.8466C632.421 36.5467 632.096 37.0464 631.571 37.5712C631.046 38.0962 630.547 38.4213 629.847 38.6933C629.318 38.8988 628.524 39.1432 627.061 39.2098C625.48 39.282 625.005 39.2973 621 39.2973C616.994 39.2973 616.52 39.282 614.939 39.2098C613.476 39.1432 612.682 38.8988 612.153 38.6933C611.453 38.4213 610.954 38.0962 610.429 37.5712C609.904 37.0464 609.579 36.5467 609.307 35.8466C609.101 35.318 608.857 34.5238 608.79 33.0613C608.718 31.4796 608.703 31.0052 608.703 27C608.703 22.9948 608.718 22.5204 608.79 20.9387C608.857 19.4762 609.101 18.682 609.307 18.1534C609.579 17.4533 609.904 16.9536 610.429 16.4287C610.954 15.9038 611.453 15.5787 612.153 15.3066C612.682 15.1012 613.476 14.8568 614.939 14.7902C616.52 14.718 616.995 14.7027 621 14.7027ZM613.297 27C613.297 22.7459 616.746 19.2973 621 19.2973C625.254 19.2973 628.703 22.7459 628.703 27C628.703 31.2541 625.254 34.7027 621 34.7027C616.746 34.7027 613.297 31.2541 613.297 27ZM621 32C618.239 32 616 29.7614 616 27C616 24.2386 618.239 22 621 22C623.761 22 626 24.2386 626 27C626 29.7614 623.761 32 621 32ZM629.007 20.7929C630.001 20.7929 630.807 19.9871 630.807 18.993C630.807 17.9989 630.001 17.193 629.007 17.193C628.013 17.193 627.207 17.9989 627.207 18.993C627.207 19.9871 628.013 20.7929 629.007 20.7929Z" fill="white"/>
</g>
<g clip-path="url(#clip1_1_473)">
<path d="M735.001 12C726.717 12 720 18.7155 720 27.0009C720 33.1413 723.694 38.4191 728.98 40.7387C728.938 39.6927 728.973 38.4332 729.24 37.2937C729.529 36.0766 731.17 29.1212 731.17 29.1212C731.17 29.1212 730.691 28.1633 730.691 26.7468C730.691 24.5242 731.981 22.8643 733.584 22.8643C734.948 22.8643 735.608 23.8892 735.608 25.1169C735.608 26.4876 734.733 28.5391 734.283 30.4389C733.907 32.0317 735.08 33.3283 736.65 33.3283C739.492 33.3283 741.406 29.6786 741.406 25.3533C741.406 22.067 739.192 19.6063 735.165 19.6063C730.616 19.6063 727.781 22.9984 727.781 26.7874C727.781 28.0963 728.165 29.0171 728.769 29.7297C729.047 30.0596 729.084 30.1902 728.984 30.5677C728.913 30.8411 728.748 31.5078 728.679 31.7707C728.578 32.1499 728.271 32.2875 727.929 32.1464C725.832 31.2909 724.856 28.9959 724.856 26.4152C724.856 22.1552 728.449 17.0432 735.576 17.0432C741.304 17.0432 745.073 21.1903 745.073 25.6373C745.073 31.522 741.803 35.9178 736.978 35.9178C735.361 35.9178 733.837 35.0428 733.314 34.0497C733.314 34.0497 732.443 37.5054 732.26 38.1722C731.942 39.3276 731.319 40.4847 730.75 41.3843C732.099 41.783 733.524 42 735.001 42C743.285 42 750 35.2845 750 27.0009C750 18.7155 743.285 12 735.001 12Z" fill="white"/>
</g>
<g clip-path="url(#clip2_1_473)">
<path fill-rule="evenodd" clip-rule="evenodd" d="M666.531 19.7916H666.489C664.372 19.7916 663 18.3753 663 16.5801C663 14.7499 664.413 13.3633 666.572 13.3633C668.729 13.3633 670.056 14.7464 670.098 16.5748C670.098 18.3701 668.729 19.7916 666.531 19.7916ZM693 40.636H686.37V31.0486C686.37 28.539 685.332 26.8259 683.052 26.8259C681.307 26.8259 680.337 27.982 679.886 29.0961C679.736 29.4483 679.739 29.9222 679.742 30.4107V30.4108C679.742 30.4771 679.743 30.5436 679.743 30.6102V40.636H673.174C673.174 40.636 673.259 23.6527 673.174 22.109H679.743V25.0166C680.131 23.7453 682.23 21.9309 685.579 21.9309C689.735 21.9309 693 24.5958 693 30.3343V40.636ZM669.604 22.109H663.757V40.636H669.604V22.109Z" fill="white"/>
</g>
<g clip-path="url(#clip3_1_473)">
<path d="M565.024 42H550.656C549.741 42 549 41.2585 549 40.3442V13.6558C549 12.7412 549.741 12 550.656 12H577.344C578.259 12 579 12.7412 579 13.6558V40.3442C579 41.2586 578.259 42 577.344 42H569.7V30.3823H573.599L574.183 25.8547H569.7V22.9642C569.7 21.6533 570.064 20.76 571.943 20.76L574.341 20.7589V16.7094C573.926 16.6543 572.503 16.531 570.847 16.531C567.39 16.531 565.024 18.641 565.024 22.5157V25.8547H561.114V30.3823H565.024V42Z" fill="white"/>
</g>
<g clip-path="url(#clip4_1_473)">
<path d="M807 17.4595C805.898 17.9615 804.711 18.301 803.466 18.4527C804.737 17.6726 805.713 16.4357 806.172 14.9623C804.982 15.6845 803.667 16.21 802.261 16.4917C801.142 15.2656 799.541 14.5 797.77 14.5C794.373 14.5 791.617 17.3259 791.617 20.8109C791.617 21.3057 791.67 21.786 791.776 22.2483C786.66 21.9847 782.126 19.4747 779.088 15.652C778.558 16.5874 778.255 17.6726 778.255 18.8283C778.255 21.0168 779.342 22.9489 780.994 24.0811C779.986 24.0504 779.036 23.7632 778.204 23.2937V23.3714C778.204 26.4303 780.326 28.9818 783.144 29.5596C782.628 29.7077 782.084 29.7817 781.522 29.7817C781.126 29.7817 780.738 29.7437 780.363 29.6697C781.147 32.1761 783.418 34.0016 786.113 34.0504C784.007 35.7442 781.351 36.7535 778.469 36.7535C777.972 36.7535 777.481 36.7247 777 36.6668C779.724 38.4545 782.961 39.5 786.435 39.5C797.757 39.5 803.947 29.8846 803.947 21.5441C803.947 21.2696 803.941 20.9951 803.931 20.7261C805.134 19.8359 806.178 18.7253 807 17.4595Z" fill="white"/>
</g>
<path d="M26.6494 36.9189C26.6494 37.6162 26.4512 38.1494 26.0547 38.5186C25.6628 38.8831 25.1068 39.0654 24.3867 39.0654C23.6712 39.0654 23.097 38.8262 22.6641 38.3477C22.2357 37.8646 22.0215 37.2083 22.0215 36.3789V35.627C22.0215 34.8249 22.238 34.1846 22.6709 33.7061C23.1084 33.223 23.6803 32.9814 24.3867 32.9814C25.1159 32.9814 25.6764 33.1683 26.0684 33.542C26.4603 33.9157 26.6562 34.4421 26.6562 35.1211H25.6582C25.6582 34.6699 25.5488 34.3486 25.3301 34.1572C25.1159 33.9613 24.8014 33.8633 24.3867 33.8633C23.9583 33.8633 23.6211 34.0205 23.375 34.335C23.1289 34.6494 23.0059 35.0869 23.0059 35.6475V36.4199C23.0059 36.9668 23.1289 37.3975 23.375 37.7119C23.6211 38.0264 23.9583 38.1836 24.3867 38.1836C24.806 38.1836 25.1204 38.0879 25.3301 37.8965C25.5443 37.7051 25.6514 37.3792 25.6514 36.9189H26.6494ZM20.4082 36.0166C20.4082 36.8005 20.5905 37.5273 20.9551 38.1973C21.3197 38.8626 21.8141 39.3844 22.4385 39.7627C23.0674 40.141 23.7464 40.3301 24.4756 40.3301C25.2048 40.3301 25.8815 40.141 26.5059 39.7627C27.1302 39.3844 27.6247 38.8626 27.9893 38.1973C28.3538 37.5273 28.5361 36.8005 28.5361 36.0166C28.5361 35.2419 28.3561 34.5241 27.9961 33.8633C27.6361 33.2025 27.1416 32.6829 26.5127 32.3047C25.8883 31.9219 25.2093 31.7305 24.4756 31.7305C23.7464 31.7305 23.0674 31.9196 22.4385 32.2979C21.8096 32.6715 21.3128 33.1911 20.9482 33.8564C20.5882 34.5218 20.4082 35.2419 20.4082 36.0166ZM19.6221 36.0166C19.6221 35.096 19.834 34.2415 20.2578 33.4531C20.6862 32.6647 21.2764 32.0449 22.0283 31.5938C22.7848 31.138 23.6006 30.9102 24.4756 30.9102C25.3506 30.9102 26.1641 31.138 26.916 31.5938C27.668 32.0449 28.2559 32.6647 28.6797 33.4531C29.1081 34.2415 29.3223 35.096 29.3223 36.0166C29.3223 36.9144 29.1172 37.7552 28.707 38.5391C28.2969 39.3229 27.7135 39.9541 26.957 40.4326C26.2051 40.9066 25.3779 41.1436 24.4756 41.1436C23.5778 41.1436 22.7507 40.9089 21.9941 40.4395C21.2422 39.9655 20.6589 39.3366 20.2441 38.5527C19.8294 37.7689 19.6221 36.9235 19.6221 36.0166Z" fill="white"/>
<path d="M71.7812 36.3994H67.4678V39.9268H72.4785V41H66.1553V31.0469H72.4102V32.127H67.4678V35.3262H71.7812V36.3994ZM79.8483 36.3994H75.5348V39.9268H80.5455V41H74.2223V31.0469H80.4772V32.127H75.5348V35.3262H79.8483V36.3994ZM85.9397 36.9736H83.6018V41H82.2825V31.0469H85.5774C86.6985 31.0469 87.5598 31.3021 88.1614 31.8125C88.7675 32.3229 89.0705 33.0658 89.0705 34.041C89.0705 34.6608 88.9019 35.2008 88.5647 35.6611C88.232 36.1214 87.7672 36.4655 87.1702 36.6934L89.508 40.918V41H88.0998L85.9397 36.9736ZM83.6018 35.9004H85.6184C86.2701 35.9004 86.7873 35.7318 87.1702 35.3945C87.5575 35.0573 87.7512 34.6061 87.7512 34.041C87.7512 33.4258 87.5666 32.9541 87.1975 32.626C86.8329 32.2979 86.3043 32.1315 85.6116 32.127H83.6018V35.9004ZM98.6825 36.3447C98.6825 37.32 98.5184 38.1722 98.1903 38.9014C97.8622 39.626 97.3973 40.1797 96.7958 40.5625C96.1942 40.9453 95.4924 41.1367 94.6903 41.1367C93.9064 41.1367 93.2115 40.9453 92.6053 40.5625C91.9992 40.1751 91.5275 39.626 91.1903 38.915C90.8576 38.1995 90.6867 37.3724 90.6776 36.4336V35.7158C90.6776 34.7588 90.8439 33.9134 91.1766 33.1797C91.5093 32.446 91.9787 31.8854 92.5848 31.498C93.1955 31.1061 93.8928 30.9102 94.6766 30.9102C95.4741 30.9102 96.176 31.1038 96.7821 31.4912C97.3928 31.874 97.8622 32.4323 98.1903 33.166C98.5184 33.8952 98.6825 34.7451 98.6825 35.7158V36.3447ZM97.3768 35.7021C97.3768 34.5218 97.1398 33.6172 96.6659 32.9883C96.1919 32.3548 95.5288 32.0381 94.6766 32.0381C93.8472 32.0381 93.1932 32.3548 92.7147 32.9883C92.2407 33.6172 91.9969 34.4922 91.9833 35.6133V36.3447C91.9833 37.4886 92.2225 38.3887 92.701 39.0449C93.1841 39.6966 93.8472 40.0225 94.6903 40.0225C95.5379 40.0225 96.1942 39.7148 96.659 39.0996C97.1239 38.4798 97.3631 37.5934 97.3768 36.4404V35.7021ZM105.663 39.9268H110.38V41H104.344V31.0469H105.663V39.9268ZM113.306 39.9268H118.023V41H111.987V31.0469H113.306V39.9268ZM126.5 37.8418C126.377 38.8945 125.988 39.708 125.331 40.2822C124.68 40.8519 123.812 41.1367 122.727 41.1367C121.551 41.1367 120.608 40.7152 119.897 39.8721C119.19 39.029 118.837 37.901 118.837 36.4883V35.5312C118.837 34.6061 119.001 33.7926 119.329 33.0908C119.662 32.389 120.132 31.8512 120.738 31.4775C121.344 31.0993 122.046 30.9102 122.843 30.9102C123.9 30.9102 124.748 31.2064 125.386 31.7988C126.024 32.3867 126.396 33.2025 126.5 34.2461H125.181C125.067 33.4531 124.819 32.8789 124.436 32.5234C124.058 32.168 123.527 31.9902 122.843 31.9902C122.005 31.9902 121.346 32.3001 120.868 32.9199C120.394 33.5397 120.157 34.4215 120.157 35.5654V36.5293C120.157 37.6094 120.382 38.4684 120.833 39.1064C121.285 39.7445 121.916 40.0635 122.727 40.0635C123.456 40.0635 124.014 39.8994 124.402 39.5713C124.794 39.2386 125.053 38.6621 125.181 37.8418H126.5ZM128.169 42.9824L127.451 42.4902C127.88 41.8932 128.103 41.278 128.121 40.6445V39.5029H129.358V40.4941C129.358 40.9544 129.244 41.4147 129.017 41.875C128.793 42.3353 128.511 42.7044 128.169 42.9824ZM137.781 36.5635C136.656 36.2399 135.835 35.8434 135.321 35.374C134.81 34.9001 134.555 34.3167 134.555 33.624C134.555 32.8402 134.867 32.193 135.491 31.6826C136.12 31.1676 136.936 30.9102 137.939 30.9102C138.622 30.9102 139.231 31.0423 139.764 31.3066C140.302 31.571 140.716 31.9355 141.008 32.4004C141.304 32.8652 141.452 33.3734 141.452 33.9248H140.133C140.133 33.3232 139.942 32.8516 139.559 32.5098C139.176 32.1634 138.636 31.9902 137.939 31.9902C137.292 31.9902 136.786 32.1338 136.421 32.4209C136.061 32.7035 135.881 33.0977 135.881 33.6035C135.881 34.0091 136.052 34.3532 136.394 34.6357C136.74 34.9137 137.326 35.1689 138.151 35.4014C138.98 35.6338 139.627 35.8913 140.092 36.1738C140.561 36.4518 140.908 36.7777 141.131 37.1514C141.359 37.5251 141.473 37.9648 141.473 38.4707C141.473 39.2773 141.158 39.9245 140.529 40.4121C139.901 40.8952 139.06 41.1367 138.007 41.1367C137.323 41.1367 136.685 41.0068 136.093 40.7471C135.501 40.4827 135.043 40.1227 134.719 39.667C134.4 39.2113 134.24 38.694 134.24 38.1152H135.56C135.56 38.7168 135.781 39.193 136.223 39.5439C136.669 39.8903 137.264 40.0635 138.007 40.0635C138.7 40.0635 139.231 39.9222 139.6 39.6396C139.969 39.3571 140.154 38.972 140.154 38.4844C140.154 37.9967 139.983 37.6208 139.641 37.3564C139.299 37.0876 138.679 36.8232 137.781 36.5635ZM148.767 38.4023H144.597L143.661 41H142.307L146.108 31.0469H147.257L151.064 41H149.718L148.767 38.4023ZM144.994 37.3223H148.378L146.682 32.667L144.994 37.3223ZM160.164 41H158.844L153.833 33.3301V41H152.514V31.0469H153.833L158.858 38.751V31.0469H160.164V41ZM171.676 36.6045H167.5V41H166.187V31.0469H172.353V32.127H167.5V35.5312H171.676V36.6045ZM177.686 36.9736H175.348V41H174.029V31.0469H177.324C178.445 31.0469 179.306 31.3021 179.908 31.8125C180.514 32.3229 180.817 33.0658 180.817 34.041C180.817 34.6608 180.648 35.2008 180.311 35.6611C179.978 36.1214 179.513 36.4655 178.916 36.6934L181.254 40.918V41H179.846L177.686 36.9736ZM175.348 35.9004H177.365C178.016 35.9004 178.533 35.7318 178.916 35.3945C179.304 35.0573 179.497 34.6061 179.497 34.041C179.497 33.4258 179.313 32.9541 178.944 32.626C178.579 32.2979 178.05 32.1315 177.358 32.127H175.348V35.9004ZM188.268 38.4023H184.099L183.162 41H181.809L185.609 31.0469H186.758L190.565 41H189.219L188.268 38.4023ZM184.495 37.3223H187.879L186.184 32.667L184.495 37.3223ZM199.665 41H198.345L193.335 33.3301V41H192.015V31.0469H193.335L198.359 38.751V31.0469H199.665V41ZM209.427 37.8418C209.304 38.8945 208.914 39.708 208.258 40.2822C207.606 40.8519 206.738 41.1367 205.653 41.1367C204.478 41.1367 203.534 40.7152 202.823 39.8721C202.117 39.029 201.764 37.901 201.764 36.4883V35.5312C201.764 34.6061 201.928 33.7926 202.256 33.0908C202.589 32.389 203.058 31.8512 203.664 31.4775C204.27 31.0993 204.972 30.9102 205.77 30.9102C206.827 30.9102 207.675 31.2064 208.313 31.7988C208.951 32.3867 209.322 33.2025 209.427 34.2461H208.108C207.994 33.4531 207.745 32.8789 207.362 32.5234C206.984 32.168 206.453 31.9902 205.77 31.9902C204.931 31.9902 204.273 32.3001 203.794 32.9199C203.32 33.5397 203.083 34.4215 203.083 35.5654V36.5293C203.083 37.6094 203.309 38.4684 203.76 39.1064C204.211 39.7445 204.842 40.0635 205.653 40.0635C206.383 40.0635 206.941 39.8994 207.328 39.5713C207.72 39.2386 207.98 38.6621 208.108 37.8418H209.427ZM212.743 41H211.43V31.0469H212.743V41ZM218.192 36.5635C217.066 36.2399 216.246 35.8434 215.731 35.374C215.22 34.9001 214.965 34.3167 214.965 33.624C214.965 32.8402 215.277 32.193 215.902 31.6826C216.531 31.1676 217.346 30.9102 218.349 30.9102C219.033 30.9102 219.641 31.0423 220.174 31.3066C220.712 31.571 221.127 31.9355 221.418 32.4004C221.715 32.8652 221.863 33.3734 221.863 33.9248H220.543C220.543 33.3232 220.352 32.8516 219.969 32.5098C219.586 32.1634 219.046 31.9902 218.349 31.9902C217.702 31.9902 217.196 32.1338 216.831 32.4209C216.471 32.7035 216.291 33.0977 216.291 33.6035C216.291 34.0091 216.462 34.3532 216.804 34.6357C217.15 34.9137 217.736 35.1689 218.561 35.4014C219.39 35.6338 220.037 35.8913 220.502 36.1738C220.972 36.4518 221.318 36.7777 221.541 37.1514C221.769 37.5251 221.883 37.9648 221.883 38.4707C221.883 39.2773 221.569 39.9245 220.94 40.4121C220.311 40.8952 219.47 41.1367 218.417 41.1367C217.734 41.1367 217.096 41.0068 216.503 40.7471C215.911 40.4827 215.453 40.1227 215.129 39.667C214.81 39.2113 214.651 38.694 214.651 38.1152H215.97C215.97 38.7168 216.191 39.193 216.633 39.5439C217.08 39.8903 217.675 40.0635 218.417 40.0635C219.11 40.0635 219.641 39.9222 220.01 39.6396C220.379 39.3571 220.564 38.972 220.564 38.4844C220.564 37.9967 220.393 37.6208 220.051 37.3564C219.709 37.0876 219.09 36.8232 218.192 36.5635ZM231.003 37.8418C230.88 38.8945 230.49 39.708 229.834 40.2822C229.182 40.8519 228.314 41.1367 227.23 41.1367C226.054 41.1367 225.11 40.7152 224.399 39.8721C223.693 39.029 223.34 37.901 223.34 36.4883V35.5312C223.34 34.6061 223.504 33.7926 223.832 33.0908C224.165 32.389 224.634 31.8512 225.24 31.4775C225.846 31.0993 226.548 30.9102 227.346 30.9102C228.403 30.9102 229.251 31.2064 229.889 31.7988C230.527 32.3867 230.898 33.2025 231.003 34.2461H229.684C229.57 33.4531 229.321 32.8789 228.938 32.5234C228.56 32.168 228.029 31.9902 227.346 31.9902C226.507 31.9902 225.849 32.3001 225.37 32.9199C224.896 33.5397 224.659 34.4215 224.659 35.5654V36.5293C224.659 37.6094 224.885 38.4684 225.336 39.1064C225.787 39.7445 226.418 40.0635 227.23 40.0635C227.959 40.0635 228.517 39.8994 228.904 39.5713C229.296 39.2386 229.556 38.6621 229.684 37.8418H231.003ZM240.567 36.3447C240.567 37.32 240.403 38.1722 240.075 38.9014C239.747 39.626 239.282 40.1797 238.68 40.5625C238.079 40.9453 237.377 41.1367 236.575 41.1367C235.791 41.1367 235.096 40.9453 234.49 40.5625C233.884 40.1751 233.412 39.626 233.075 38.915C232.742 38.1995 232.571 37.3724 232.562 36.4336V35.7158C232.562 34.7588 232.728 33.9134 233.061 33.1797C233.394 32.446 233.863 31.8854 234.469 31.498C235.08 31.1061 235.777 30.9102 236.561 30.9102C237.359 30.9102 238.061 31.1038 238.667 31.4912C239.277 31.874 239.747 32.4323 240.075 33.166C240.403 33.8952 240.567 34.7451 240.567 35.7158V36.3447ZM239.261 35.7021C239.261 34.5218 239.024 33.6172 238.55 32.9883C238.076 32.3548 237.413 32.0381 236.561 32.0381C235.732 32.0381 235.078 32.3548 234.599 32.9883C234.125 33.6172 233.881 34.4922 233.868 35.6133V36.3447C233.868 37.4886 234.107 38.3887 234.586 39.0449C235.069 39.6966 235.732 40.0225 236.575 40.0225C237.422 40.0225 238.079 39.7148 238.544 39.0996C239.008 38.4798 239.248 37.5934 239.261 36.4404V35.7021ZM241.709 42.9824L240.991 42.4902C241.42 41.8932 241.643 41.278 241.661 40.6445V39.5029H242.899V40.4941C242.899 40.9544 242.785 41.4147 242.557 41.875C242.334 42.3353 242.051 42.7044 241.709 42.9824ZM255.71 37.8418C255.587 38.8945 255.198 39.708 254.541 40.2822C253.89 40.8519 253.022 41.1367 251.937 41.1367C250.761 41.1367 249.818 40.7152 249.107 39.8721C248.401 39.029 248.047 37.901 248.047 36.4883V35.5312C248.047 34.6061 248.211 33.7926 248.54 33.0908C248.872 32.389 249.342 31.8512 249.948 31.4775C250.554 31.0993 251.256 30.9102 252.053 30.9102C253.11 30.9102 253.958 31.2064 254.596 31.7988C255.234 32.3867 255.606 33.2025 255.71 34.2461H254.391C254.277 33.4531 254.029 32.8789 253.646 32.5234C253.268 32.168 252.737 31.9902 252.053 31.9902C251.215 31.9902 250.556 32.3001 250.078 32.9199C249.604 33.5397 249.367 34.4215 249.367 35.5654V36.5293C249.367 37.6094 249.592 38.4684 250.043 39.1064C250.495 39.7445 251.126 40.0635 251.937 40.0635C252.666 40.0635 253.224 39.8994 253.612 39.5713C254.004 39.2386 254.263 38.6621 254.391 37.8418H255.71ZM263.114 38.4023H258.944L258.008 41H256.654L260.455 31.0469H261.604L265.411 41H264.065L263.114 38.4023ZM259.341 37.3223H262.725L261.029 32.667L259.341 37.3223Z" fill="white"/>
<path d="M40.8237 41H34.7681V40.1558L37.9673 36.6011C38.4412 36.0636 38.7671 35.6278 38.9448 35.2935C39.1268 34.9549 39.2178 34.6058 39.2178 34.2461C39.2178 33.7637 39.0718 33.368 38.7798 33.0591C38.4878 32.7502 38.0985 32.5957 37.6118 32.5957C37.0278 32.5957 36.5729 32.7629 36.2471 33.0972C35.9255 33.4272 35.7646 33.8885 35.7646 34.481H34.5903C34.5903 33.6304 34.8633 32.9427 35.4092 32.418C35.9593 31.8932 36.6935 31.6309 37.6118 31.6309C38.4709 31.6309 39.1501 31.8573 39.6494 32.3101C40.1488 32.7586 40.3984 33.3574 40.3984 34.1064C40.3984 35.0163 39.8187 36.0996 38.6592 37.3564L36.1836 40.0415H40.8237V41ZM47.9733 37.0581C47.9733 38.4334 47.7384 39.4554 47.2687 40.124C46.7989 40.7926 46.0647 41.127 45.066 41.127C44.08 41.127 43.3501 40.8011 42.8761 40.1494C42.4021 39.4935 42.1567 38.516 42.1398 37.2168V35.6489C42.1398 34.2905 42.3746 33.2812 42.8444 32.6211C43.3141 31.9609 44.0504 31.6309 45.0533 31.6309C46.0478 31.6309 46.7799 31.9504 47.2496 32.5894C47.7194 33.2241 47.9606 34.2059 47.9733 35.5347V37.0581ZM46.7989 35.4521C46.7989 34.4577 46.6593 33.734 46.38 33.2812C46.1007 32.8242 45.6585 32.5957 45.0533 32.5957C44.4524 32.5957 44.0144 32.8221 43.7394 33.2749C43.4643 33.7277 43.3225 34.4238 43.3141 35.3633V37.2422C43.3141 38.2409 43.458 38.9793 43.7457 39.4575C44.0377 39.9315 44.4778 40.1685 45.066 40.1685C45.6458 40.1685 46.0753 39.9442 46.3546 39.4956C46.6381 39.047 46.7862 38.3403 46.7989 37.3755V35.4521ZM55.6433 41H49.5876V40.1558L52.7869 36.6011C53.2608 36.0636 53.5867 35.6278 53.7644 35.2935C53.9464 34.9549 54.0373 34.6058 54.0373 34.2461C54.0373 33.7637 53.8913 33.368 53.5994 33.0591C53.3074 32.7502 52.918 32.5957 52.4314 32.5957C51.8474 32.5957 51.3925 32.7629 51.0666 33.0972C50.745 33.4272 50.5842 33.8885 50.5842 34.481H49.4099C49.4099 33.6304 49.6829 32.9427 50.2287 32.418C50.7789 31.8932 51.5131 31.6309 52.4314 31.6309C53.2904 31.6309 53.9696 31.8573 54.469 32.3101C54.9683 32.7586 55.218 33.3574 55.218 34.1064C55.218 35.0163 54.6383 36.0996 53.4787 37.3564L51.0032 40.0415H55.6433V41ZM60.8568 41H59.6761V33.1733L57.3085 34.043V32.9766L60.6727 31.7134H60.8568V41Z" fill="white"/>
<defs>
<clipPath id="clip0_1_473">
<rect width="30" height="30" fill="white" transform="translate(606 12)"/>
</clipPath>
<clipPath id="clip1_1_473">
<rect width="30" height="30" fill="white" transform="translate(720 12)"/>
</clipPath>
<clipPath id="clip2_1_473">
<rect width="30" height="30" fill="white" transform="translate(663 12)"/>
</clipPath>
<clipPath id="clip3_1_473">
<rect width="30" height="30" fill="white" transform="translate(549 12)"/>
</clipPath>
<clipPath id="clip4_1_473">
<rect width="30" height="30" fill="white" transform="translate(777 12)"/>
</clipPath>
</defs>
</svg>
