<svg width="79" height="80" viewBox="0 0 79 80" fill="none" xmlns="http://www.w3.org/2000/svg">
<g clip-path="url(#clip0_1_107)">
<path fill-rule="evenodd" clip-rule="evenodd" d="M26.0122 1.26025H52.9878C66.8215 1.26025 78.0366 12.4754 78.0366 26.309V53.2846C78.0366 67.1183 66.8215 78.3334 52.9878 78.3334H26.0122C12.1785 78.3334 0.96344 67.1183 0.96344 53.2846V26.309C0.96344 12.4754 12.1785 1.26025 26.0122 1.26025Z" stroke="#FEFEFE" stroke-width="1.5"/>
<path d="M46.2166 25.6447C44.2329 24.4713 41.9198 23.7979 39.4496 23.7979C36.9948 23.7979 34.6961 24.4616 32.722 25.6206" stroke="#FEFEFE" stroke-width="1.5"/>
<path d="M51.1645 21.0546C47.8735 18.6432 43.8136 17.2202 39.4224 17.2202C35.0726 17.2202 31.0484 18.6162 27.7747 20.9852" stroke="#FEFEFE" stroke-width="1.5"/>
<path fill-rule="evenodd" clip-rule="evenodd" d="M44.525 61.4095H34.4746C29.2539 61.4095 25.0216 57.1772 25.0216 51.9555V41.9061C25.0216 36.6854 29.2539 32.4521 34.4746 32.4521H44.525C49.7467 32.4521 53.979 36.6854 53.979 41.9061V51.9555C53.979 57.1772 49.7467 61.4095 44.525 61.4095Z" stroke="#FEFEFE" stroke-width="1.5"/>
<path fill-rule="evenodd" clip-rule="evenodd" d="M35.2709 46.931C35.2709 44.5948 37.164 42.7007 39.5003 42.7007C41.8356 42.7007 43.7297 44.5948 43.7297 46.931C43.7297 49.2673 41.8356 51.1614 39.5003 51.1614C37.164 51.1614 35.2709 49.2673 35.2709 46.931Z" stroke="#FEFEFE" stroke-width="1.5"/>
</g>
<defs>
<clipPath id="clip0_1_107">
<rect width="79" height="79" fill="white" transform="translate(0 0.296875)"/>
</clipPath>
</defs>
</svg>
