<svg width="79" height="80" viewBox="0 0 79 80" fill="none" xmlns="http://www.w3.org/2000/svg">
<path d="M52.9878 1.8833H26.0122C12.1781 1.8833 0.963409 12.9629 0.963409 26.6303V53.2809C0.963409 66.9483 12.1781 78.0279 26.0122 78.0279H52.9878C66.8219 78.0279 78.0366 66.9483 78.0366 53.2809V26.6303C78.0366 12.9629 66.8219 1.8833 52.9878 1.8833Z" stroke="white"/>
<path fill-rule="evenodd" clip-rule="evenodd" d="M54.5697 54.8436C46.2747 63.0396 32.8235 63.0396 24.5276 54.8436C16.2306 46.6485 16.2306 33.3594 24.5276 25.1633C32.8226 16.9664 46.2747 16.9664 54.5697 25.1633C62.8657 33.3584 62.8657 46.6485 54.5697 54.8436Z" stroke="white" stroke-width="1.575" stroke-linecap="round" stroke-linejoin="round"/>
<path fill-rule="evenodd" clip-rule="evenodd" d="M45.9857 50.1788C45.1424 51.0235 44.1384 51.695 43.0313 52.1547C41.9242 52.6144 40.736 52.8532 39.5352 52.8573C38.3343 52.8614 37.1445 52.6307 36.0342 52.1786C34.924 51.7264 33.9152 51.0618 33.0661 50.2229C32.2169 49.3839 31.5441 48.3874 31.0865 47.2905C30.6289 46.1936 30.3954 45.0181 30.3995 43.8317C30.4037 42.6453 30.6453 41.4714 31.1106 40.3777C31.5759 39.284 32.2556 38.292 33.1106 37.4589C34.822 35.7913 37.1314 34.86 39.5352 34.8682C41.9389 34.8764 44.2417 35.8234 45.9414 37.5026C47.6411 39.1818 48.5997 41.457 48.608 43.8317C48.6162 46.2065 47.6736 48.4881 45.9857 50.1788Z" stroke="white" stroke-width="1.575" stroke-linecap="round" stroke-linejoin="round"/>
<path d="M39.5482 40.8218V46.8182" stroke="white" stroke-width="1.575" stroke-linecap="round" stroke-linejoin="round"/>
<path fill-rule="evenodd" clip-rule="evenodd" d="M41.6946 28.9871C41.1236 29.541 40.3542 29.8497 39.5539 29.8461C38.7536 29.8425 37.9871 29.5268 37.4212 28.9677C36.8553 28.4086 36.5358 27.6514 36.5321 26.8608C36.5285 26.0701 36.841 25.31 37.4017 24.7458C37.9727 24.1919 38.7421 23.8831 39.5424 23.8868C40.3427 23.8904 41.1092 24.2061 41.6751 24.7651C42.241 25.3242 42.5605 26.0815 42.5642 26.8721C42.5678 27.6628 42.2553 28.4229 41.6946 28.9871V28.9871Z" stroke="white" stroke-width="1.575" stroke-linecap="round" stroke-linejoin="round"/>
</svg>
