<svg width="302" height="97" viewBox="0 0 302 97" fill="none" xmlns="http://www.w3.org/2000/svg">
<rect x="37.5" y="36.5" width="23" height="23" stroke="#00B68C"/>
<rect x="40" y="39" width="18" height="18" fill="#00B68C"/>
<path d="M50.9834 52H49.7119V43.5713L47.1621 44.5078V43.3594L50.7852 41.999H50.9834V52Z" fill="white"/>
<rect x="65.7969" y="48.6562" width="36" height="1" fill="#999999"/>
<rect x="109" y="39" width="18" height="18" fill="#999999"/>
<path d="M121.349 50.9609V52H114.834V51.0908L118.095 47.4609C118.496 47.0143 118.806 46.6361 119.024 46.3262C119.248 46.0117 119.403 45.7314 119.489 45.4854C119.58 45.2347 119.626 44.9795 119.626 44.7197C119.626 44.3916 119.558 44.0954 119.421 43.8311C119.289 43.5622 119.093 43.348 118.833 43.1885C118.573 43.029 118.259 42.9492 117.89 42.9492C117.448 42.9492 117.078 43.0358 116.782 43.209C116.491 43.3776 116.272 43.6146 116.126 43.9199C115.98 44.2253 115.907 44.5762 115.907 44.9727H114.643C114.643 44.4121 114.766 43.8994 115.012 43.4346C115.258 42.9697 115.622 42.6006 116.105 42.3271C116.589 42.0492 117.183 41.9102 117.89 41.9102C118.519 41.9102 119.056 42.0218 119.503 42.2451C119.95 42.4639 120.291 42.7738 120.528 43.1748C120.77 43.5713 120.891 44.0361 120.891 44.5693C120.891 44.861 120.84 45.1572 120.74 45.458C120.645 45.7542 120.51 46.0505 120.337 46.3467C120.168 46.6429 119.97 46.9346 119.742 47.2217C119.519 47.5088 119.28 47.7913 119.024 48.0693L116.358 50.9609H121.349Z" fill="white"/>
<rect x="133.984" y="48.6562" width="36" height="1" fill="#999999"/>
<rect x="177" y="39" width="18" height="18" fill="#999999"/>
<path d="M184.666 46.4082H185.616C186.213 46.3991 186.683 46.2419 187.024 45.9365C187.366 45.6312 187.537 45.2188 187.537 44.6992C187.537 43.5326 186.956 42.9492 185.794 42.9492C185.247 42.9492 184.81 43.1064 184.481 43.4209C184.158 43.7308 183.996 44.1432 183.996 44.6582H182.731C182.731 43.8698 183.019 43.2158 183.593 42.6963C184.172 42.1722 184.905 41.9102 185.794 41.9102C186.733 41.9102 187.469 42.1585 188.002 42.6553C188.535 43.152 188.802 43.8424 188.802 44.7266C188.802 45.1595 188.66 45.5788 188.378 45.9844C188.1 46.39 187.719 46.693 187.236 46.8936C187.783 47.0667 188.205 47.3538 188.501 47.7549C188.802 48.1559 188.952 48.6458 188.952 49.2246C188.952 50.1178 188.66 50.8265 188.077 51.3506C187.494 51.8747 186.735 52.1367 185.801 52.1367C184.867 52.1367 184.105 51.8838 183.518 51.3779C182.934 50.8721 182.643 50.2044 182.643 49.375H183.914C183.914 49.8991 184.085 50.3184 184.427 50.6328C184.769 50.9473 185.227 51.1045 185.801 51.1045C186.411 51.1045 186.879 50.945 187.202 50.626C187.526 50.307 187.688 49.849 187.688 49.252C187.688 48.6732 187.51 48.2288 187.154 47.9189C186.799 47.609 186.286 47.4495 185.616 47.4404H184.666V46.4082Z" fill="white"/>
<rect x="202.172" y="48.6562" width="36" height="1" fill="#999999"/>
<rect x="245" y="39" width="18" height="18" fill="#999999"/>
<path d="M255.166 48.6572H256.547V49.6895H255.166V52H253.895V49.6895H249.362V48.9443L253.819 42.0469H255.166V48.6572ZM250.798 48.6572H253.895V43.7764L253.744 44.0498L250.798 48.6572Z" fill="white"/>
</svg>
