<svg width="79" height="79" viewBox="0 0 79 79" fill="none" xmlns="http://www.w3.org/2000/svg">
<path d="M52.9878 1.58643H26.0122C12.1781 1.58643 0.963409 12.666 0.963409 26.3334V52.984C0.963409 66.6514 12.1781 77.731 26.0122 77.731H52.9878C66.8219 77.731 78.0366 66.6514 78.0366 52.984V26.3334C78.0366 12.666 66.8219 1.58643 52.9878 1.58643Z" fill="black" stroke="white"/>
<path d="M31.0923 52.4775H47.1206" stroke="white" stroke-width="1.575" stroke-linecap="round" stroke-linejoin="round"/>
<path d="M33.3813 56.4761H44.8306" stroke="white" stroke-width="1.575" stroke-linecap="round" stroke-linejoin="round"/>
<path d="M42.5405 60.4727H35.6714" stroke="white" stroke-width="1.575" stroke-linecap="round" stroke-linejoin="round"/>
<path d="M47.0532 48.4799C47.0532 46.3288 47.5907 44.211 48.6216 42.3121L52.0109 36.0493C52.0302 36.0121 52.0523 35.9779 52.0706 35.9408L52.0918 35.8998H52.0841C52.7932 34.4096 53.1619 32.7836 53.1641 31.137C53.1641 24.2792 46.8701 18.7188 39.1059 18.7188C31.3428 18.7188 25.0488 24.2792 25.0488 31.137C25.0488 32.8264 25.437 34.4321 26.1278 35.8998H26.122L26.1432 35.9408C26.1605 35.9779 26.1837 36.014 26.2039 36.0512L29.5922 42.3112C30.6208 44.2086 31.1592 46.3275 31.1597 48.4799" stroke="white" stroke-width="1.575" stroke-linecap="round" stroke-linejoin="round"/>
</svg>
